<svg xmlns="http://www.w3.org/2000/svg" viewBox="0 0 900 520" font-family="'Segoe UI', system-ui, -apple-system, sans-serif">
  <defs>
    <linearGradient id="docGrad" x1="0" y1="0" x2="0" y2="1">
      <stop offset="0%" stop-color="#e8f4f8"/>
      <stop offset="100%" stop-color="#d1ecf1"/>
    </linearGradient>
    <linearGradient id="methodGrad" x1="0" y1="0" x2="0" y2="1">
      <stop offset="0%" stop-color="#fff3e0"/>
      <stop offset="100%" stop-color="#ffe0b2"/>
    </linearGradient>
    <linearGradient id="metricGrad" x1="0" y1="0" x2="0" y2="1">
      <stop offset="0%" stop-color="#f3e5f5"/>
      <stop offset="100%" stop-color="#e1bee7"/>
    </linearGradient>
    <linearGradient id="selectGrad" x1="0" y1="0" x2="0" y2="1">
      <stop offset="0%" stop-color="#e8f5e9"/>
      <stop offset="100%" stop-color="#c8e6c9"/>
    </linearGradient>
    <linearGradient id="outGrad" x1="0" y1="0" x2="0" y2="1">
      <stop offset="0%" stop-color="#e3f2fd"/>
      <stop offset="100%" stop-color="#bbdefb"/>
    </linearGradient>
    <marker id="arrow" viewBox="0 0 10 7" refX="10" refY="3.5" markerWidth="10" markerHeight="7" orient="auto-start-auto">
      <path d="M 0 0 L 10 3.5 L 0 7 z" fill="#78909c"/>
    </marker>
    <filter id="shadow" x="-4%" y="-4%" width="108%" height="112%">
      <feDropShadow dx="1" dy="2" stdDeviation="2" flood-opacity="0.1"/>
    </filter>
  </defs>

  <!-- Background -->
  <rect width="900" height="520" fill="#fafbfc" rx="12"/>

  <!-- Title -->
  <text x="450" y="36" text-anchor="middle" font-size="18" font-weight="700" fill="#263238">How Adaptive Chunking Works</text>
  <text x="450" y="56" text-anchor="middle" font-size="12" fill="#78909c">For each document, evaluate every method × every metric, then pick the best</text>

  <!-- ─── Column 1: Documents ─── -->
  <text x="80" y="88" text-anchor="middle" font-size="13" font-weight="600" fill="#37474f">Corpus</text>

  <g filter="url(#shadow)">
    <rect x="20" y="100" width="120" height="44" rx="8" fill="url(#docGrad)" stroke="#90caf9" stroke-width="1.2"/>
    <text x="80" y="120" text-anchor="middle" font-size="11" font-weight="600" fill="#1565c0">Doc 1</text>
    <text x="80" y="134" text-anchor="middle" font-size="9" fill="#546e7a">technical report</text>
  </g>
  <g filter="url(#shadow)">
    <rect x="20" y="156" width="120" height="44" rx="8" fill="url(#docGrad)" stroke="#90caf9" stroke-width="1.2"/>
    <text x="80" y="176" text-anchor="middle" font-size="11" font-weight="600" fill="#1565c0">Doc 2</text>
    <text x="80" y="190" text-anchor="middle" font-size="9" fill="#546e7a">legal contract</text>
  </g>
  <g filter="url(#shadow)">
    <rect x="20" y="212" width="120" height="44" rx="8" fill="url(#docGrad)" stroke="#90caf9" stroke-width="1.2"/>
    <text x="80" y="232" text-anchor="middle" font-size="11" font-weight="600" fill="#1565c0">Doc 3</text>
    <text x="80" y="246" text-anchor="middle" font-size="9" fill="#546e7a">ESG report</text>
  </g>

  <text x="80" y="278" text-anchor="middle" font-size="16" fill="#90a4ae">...</text>

  <g filter="url(#shadow)">
    <rect x="20" y="290" width="120" height="44" rx="8" fill="url(#docGrad)" stroke="#90caf9" stroke-width="1.2"/>
    <text x="80" y="310" text-anchor="middle" font-size="11" font-weight="600" fill="#1565c0">Doc N</text>
    <text x="80" y="324" text-anchor="middle" font-size="9" fill="#546e7a">any document</text>
  </g>

  <!-- Lines: docs → methods (fully connected) -->
  <!-- Doc 1 (y=122) to all methods -->
  <line x1="140" y1="122" x2="195" y2="118" stroke="#78909c" stroke-width="0.8" opacity="0.35"/>
  <line x1="140" y1="122" x2="195" y2="166" stroke="#78909c" stroke-width="0.8" opacity="0.35"/>
  <line x1="140" y1="122" x2="195" y2="214" stroke="#78909c" stroke-width="0.8" opacity="0.35"/>
  <line x1="140" y1="122" x2="195" y2="262" stroke="#78909c" stroke-width="0.8" opacity="0.35"/>
  <line x1="140" y1="122" x2="195" y2="314" stroke="#78909c" stroke-width="0.8" opacity="0.35"/>
  <!-- Doc 2 (y=178) to all methods -->
  <line x1="140" y1="178" x2="195" y2="118" stroke="#78909c" stroke-width="0.8" opacity="0.35"/>
  <line x1="140" y1="178" x2="195" y2="166" stroke="#78909c" stroke-width="0.8" opacity="0.35"/>
  <line x1="140" y1="178" x2="195" y2="214" stroke="#78909c" stroke-width="0.8" opacity="0.35"/>
  <line x1="140" y1="178" x2="195" y2="262" stroke="#78909c" stroke-width="0.8" opacity="0.35"/>
  <line x1="140" y1="178" x2="195" y2="314" stroke="#78909c" stroke-width="0.8" opacity="0.35"/>
  <!-- Doc 3 (y=234) to all methods -->
  <line x1="140" y1="234" x2="195" y2="118" stroke="#78909c" stroke-width="0.8" opacity="0.35"/>
  <line x1="140" y1="234" x2="195" y2="166" stroke="#78909c" stroke-width="0.8" opacity="0.35"/>
  <line x1="140" y1="234" x2="195" y2="214" stroke="#78909c" stroke-width="0.8" opacity="0.35"/>
  <line x1="140" y1="234" x2="195" y2="262" stroke="#78909c" stroke-width="0.8" opacity="0.35"/>
  <line x1="140" y1="234" x2="195" y2="314" stroke="#78909c" stroke-width="0.8" opacity="0.35"/>
  <!-- Doc N (y=312) to all methods -->
  <line x1="140" y1="312" x2="195" y2="118" stroke="#78909c" stroke-width="0.8" opacity="0.35"/>
  <line x1="140" y1="312" x2="195" y2="166" stroke="#78909c" stroke-width="0.8" opacity="0.35"/>
  <line x1="140" y1="312" x2="195" y2="214" stroke="#78909c" stroke-width="0.8" opacity="0.35"/>
  <line x1="140" y1="312" x2="195" y2="262" stroke="#78909c" stroke-width="0.8" opacity="0.35"/>
  <line x1="140" y1="312" x2="195" y2="314" stroke="#78909c" stroke-width="0.8" opacity="0.35"/>

  <!-- ─── Column 2: Chunking Methods ─── -->
  <text x="265" y="88" text-anchor="middle" font-size="13" font-weight="600" fill="#37474f">Chunking Methods</text>

  <g filter="url(#shadow)">
    <rect x="195" y="100" width="140" height="36" rx="7" fill="url(#methodGrad)" stroke="#ffb74d" stroke-width="1.2"/>
    <text x="265" y="123" text-anchor="middle" font-size="11" font-weight="600" fill="#e65100">Recursive</text>
  </g>
  <g filter="url(#shadow)">
    <rect x="195" y="148" width="140" height="36" rx="7" fill="url(#methodGrad)" stroke="#ffb74d" stroke-width="1.2"/>
    <text x="265" y="171" text-anchor="middle" font-size="11" font-weight="600" fill="#e65100">Semantic</text>
  </g>
  <g filter="url(#shadow)">
    <rect x="195" y="196" width="140" height="36" rx="7" fill="url(#methodGrad)" stroke="#ffb74d" stroke-width="1.2"/>
    <text x="265" y="219" text-anchor="middle" font-size="11" font-weight="600" fill="#e65100">Page</text>
  </g>
  <g filter="url(#shadow)">
    <rect x="195" y="244" width="140" height="36" rx="7" fill="url(#methodGrad)" stroke="#ffb74d" stroke-width="1.2"/>
    <text x="265" y="267" text-anchor="middle" font-size="11" font-weight="600" fill="#e65100">LLM Regex</text>
  </g>

  <!-- Custom method (dashed) -->
  <g filter="url(#shadow)">
    <rect x="195" y="296" width="140" height="36" rx="7" fill="#fff8e1" stroke="#ffb74d" stroke-width="1.2" stroke-dasharray="5,3"/>
    <text x="265" y="319" text-anchor="middle" font-size="11" font-weight="500" fill="#bf360c" font-style="italic">your method ...</text>
  </g>

  <!-- Brace / "each doc × each method" label -->
  <text x="265" y="358" text-anchor="middle" font-size="10" fill="#78909c">each doc × each method</text>

  <!-- Lines: methods → metrics (fully connected) -->
  <!-- Recursive (y=118) to all metrics -->
  <line x1="335" y1="118" x2="400" y2="118" stroke="#78909c" stroke-width="0.8" opacity="0.35"/>
  <line x1="335" y1="118" x2="400" y2="166" stroke="#78909c" stroke-width="0.8" opacity="0.35"/>
  <line x1="335" y1="118" x2="400" y2="214" stroke="#78909c" stroke-width="0.8" opacity="0.35"/>
  <line x1="335" y1="118" x2="400" y2="262" stroke="#78909c" stroke-width="0.8" opacity="0.35"/>
  <line x1="335" y1="118" x2="400" y2="310" stroke="#78909c" stroke-width="0.8" opacity="0.35"/>
  <line x1="335" y1="118" x2="400" y2="358" stroke="#78909c" stroke-width="0.8" opacity="0.35"/>
  <!-- Sentence (y=166) to all metrics -->
  <line x1="335" y1="166" x2="400" y2="118" stroke="#78909c" stroke-width="0.8" opacity="0.35"/>
  <line x1="335" y1="166" x2="400" y2="166" stroke="#78909c" stroke-width="0.8" opacity="0.35"/>
  <line x1="335" y1="166" x2="400" y2="214" stroke="#78909c" stroke-width="0.8" opacity="0.35"/>
  <line x1="335" y1="166" x2="400" y2="262" stroke="#78909c" stroke-width="0.8" opacity="0.35"/>
  <line x1="335" y1="166" x2="400" y2="310" stroke="#78909c" stroke-width="0.8" opacity="0.35"/>
  <line x1="335" y1="166" x2="400" y2="358" stroke="#78909c" stroke-width="0.8" opacity="0.35"/>
  <!-- Semantic (y=214) to all metrics -->
  <line x1="335" y1="214" x2="400" y2="118" stroke="#78909c" stroke-width="0.8" opacity="0.35"/>
  <line x1="335" y1="214" x2="400" y2="166" stroke="#78909c" stroke-width="0.8" opacity="0.35"/>
  <line x1="335" y1="214" x2="400" y2="214" stroke="#78909c" stroke-width="0.8" opacity="0.35"/>
  <line x1="335" y1="214" x2="400" y2="262" stroke="#78909c" stroke-width="0.8" opacity="0.35"/>
  <line x1="335" y1="214" x2="400" y2="310" stroke="#78909c" stroke-width="0.8" opacity="0.35"/>
  <line x1="335" y1="214" x2="400" y2="358" stroke="#78909c" stroke-width="0.8" opacity="0.35"/>
  <!-- LLM Regex (y=262) to all metrics -->
  <line x1="335" y1="262" x2="400" y2="118" stroke="#78909c" stroke-width="0.8" opacity="0.35"/>
  <line x1="335" y1="262" x2="400" y2="166" stroke="#78909c" stroke-width="0.8" opacity="0.35"/>
  <line x1="335" y1="262" x2="400" y2="214" stroke="#78909c" stroke-width="0.8" opacity="0.35"/>
  <line x1="335" y1="262" x2="400" y2="262" stroke="#78909c" stroke-width="0.8" opacity="0.35"/>
  <line x1="335" y1="262" x2="400" y2="310" stroke="#78909c" stroke-width="0.8" opacity="0.35"/>
  <line x1="335" y1="262" x2="400" y2="358" stroke="#78909c" stroke-width="0.8" opacity="0.35"/>
  <!-- Your method (y=314) to all metrics -->
  <line x1="335" y1="314" x2="400" y2="118" stroke="#78909c" stroke-width="0.8" opacity="0.35"/>
  <line x1="335" y1="314" x2="400" y2="166" stroke="#78909c" stroke-width="0.8" opacity="0.35"/>
  <line x1="335" y1="314" x2="400" y2="214" stroke="#78909c" stroke-width="0.8" opacity="0.35"/>
  <line x1="335" y1="314" x2="400" y2="262" stroke="#78909c" stroke-width="0.8" opacity="0.35"/>
  <line x1="335" y1="314" x2="400" y2="310" stroke="#78909c" stroke-width="0.8" opacity="0.35"/>
  <line x1="335" y1="314" x2="400" y2="358" stroke="#78909c" stroke-width="0.8" opacity="0.35"/>

  <!-- ─── Column 3: Metrics ─── -->
  <text x="470" y="88" text-anchor="middle" font-size="13" font-weight="600" fill="#37474f">Quality Metrics</text>

  <g filter="url(#shadow)">
    <rect x="400" y="100" width="140" height="36" rx="7" fill="url(#metricGrad)" stroke="#ce93d8" stroke-width="1.2"/>
    <text x="470" y="123" text-anchor="middle" font-size="11" font-weight="600" fill="#6a1b9a">Size Compliance</text>
  </g>
  <g filter="url(#shadow)">
    <rect x="400" y="148" width="140" height="36" rx="7" fill="url(#metricGrad)" stroke="#ce93d8" stroke-width="1.2"/>
    <text x="470" y="171" text-anchor="middle" font-size="11" font-weight="600" fill="#6a1b9a">Intrachunk Cohesion</text>
  </g>
  <g filter="url(#shadow)">
    <rect x="400" y="196" width="140" height="36" rx="7" fill="url(#metricGrad)" stroke="#ce93d8" stroke-width="1.2"/>
    <text x="470" y="219" text-anchor="middle" font-size="11" font-weight="600" fill="#6a1b9a">Context Coherence</text>
  </g>
  <g filter="url(#shadow)">
    <rect x="400" y="244" width="140" height="36" rx="7" fill="url(#metricGrad)" stroke="#ce93d8" stroke-width="1.2"/>
    <text x="470" y="267" text-anchor="middle" font-size="11" font-weight="600" fill="#6a1b9a">Block Integrity</text>
  </g>
  <g filter="url(#shadow)">
    <rect x="400" y="292" width="140" height="36" rx="7" fill="url(#metricGrad)" stroke="#ce93d8" stroke-width="1.2"/>
    <text x="470" y="315" text-anchor="middle" font-size="11" font-weight="600" fill="#6a1b9a">Reference Error</text>
  </g>

  <!-- Custom metric (dashed) -->
  <g filter="url(#shadow)">
    <rect x="400" y="340" width="140" height="36" rx="7" fill="#fce4ec" stroke="#ce93d8" stroke-width="1.2" stroke-dasharray="5,3"/>
    <text x="470" y="363" text-anchor="middle" font-size="11" font-weight="500" fill="#6a1b9a" font-style="italic">your metric ...</text>
  </g>

  <!-- ─── Score matrix ─── -->
  <text x="470" y="408" text-anchor="middle" font-size="10" fill="#78909c">score matrix per document</text>

  <!-- Lines: metrics → selection (fully connected) -->
  <line x1="540" y1="118" x2="620" y2="180" stroke="#78909c" stroke-width="0.8" opacity="0.35"/>
  <line x1="540" y1="166" x2="620" y2="190" stroke="#78909c" stroke-width="0.8" opacity="0.35"/>
  <line x1="540" y1="214" x2="620" y2="210" stroke="#78909c" stroke-width="0.8" opacity="0.35"/>
  <line x1="540" y1="262" x2="620" y2="230" stroke="#78909c" stroke-width="0.8" opacity="0.35"/>
  <line x1="540" y1="310" x2="620" y2="240" stroke="#78909c" stroke-width="0.8" opacity="0.35"/>
  <line x1="540" y1="358" x2="620" y2="250" stroke="#78909c" stroke-width="0.8" opacity="0.35"/>

  <!-- ─── Column 4: Selection ─── -->
  <g filter="url(#shadow)">
    <rect x="615" y="130" width="150" height="160" rx="14" fill="url(#selectGrad)" stroke="#66bb6a" stroke-width="1.8"/>
    <text x="690" y="175" text-anchor="middle" font-size="13" font-weight="700" fill="#2e7d32">Best Method</text>
    <text x="690" y="193" text-anchor="middle" font-size="11" fill="#388e3c">Selection</text>
    <line x1="640" y1="205" x2="740" y2="205" stroke="#81c784" stroke-width="1"/>
    <text x="690" y="225" text-anchor="middle" font-size="10" fill="#546e7a">For each document,</text>
    <text x="690" y="240" text-anchor="middle" font-size="10" fill="#546e7a">pick the method with</text>
    <text x="690" y="255" text-anchor="middle" font-size="10" fill="#546e7a">the highest average</text>
    <text x="690" y="270" text-anchor="middle" font-size="10" fill="#546e7a">quality score</text>
  </g>

  <!-- Lines: selection → output -->
  <line x1="760" y1="185" x2="800" y2="138" stroke="#78909c" stroke-width="0.8" opacity="0.5"/>
  <line x1="760" y1="210" x2="800" y2="206" stroke="#78909c" stroke-width="0.8" opacity="0.5"/>
  <line x1="760" y1="235" x2="800" y2="274" stroke="#78909c" stroke-width="0.8" opacity="0.5"/>

  <!-- ─── Column 5: Output ─── -->
  <g filter="url(#shadow)">
    <rect x="800" y="110" width="80" height="56" rx="8" fill="url(#outGrad)" stroke="#64b5f6" stroke-width="1.2"/>
    <text x="840" y="135" text-anchor="middle" font-size="10" font-weight="600" fill="#1565c0">Doc 1</text>
    <text x="840" y="155" text-anchor="middle" font-size="9" fill="#e65100">Recursive</text>
  </g>
  <g filter="url(#shadow)">
    <rect x="800" y="178" width="80" height="56" rx="8" fill="url(#outGrad)" stroke="#64b5f6" stroke-width="1.2"/>
    <text x="840" y="203" text-anchor="middle" font-size="10" font-weight="600" fill="#1565c0">Doc 2</text>
    <text x="840" y="223" text-anchor="middle" font-size="9" fill="#e65100">LLM Regex</text>
  </g>
  <g filter="url(#shadow)">
    <rect x="800" y="246" width="80" height="56" rx="8" fill="url(#outGrad)" stroke="#64b5f6" stroke-width="1.2"/>
    <text x="840" y="271" text-anchor="middle" font-size="10" font-weight="600" fill="#1565c0">Doc 3</text>
    <text x="840" y="291" text-anchor="middle" font-size="9" fill="#e65100">Semantic</text>
  </g>

  <text x="840" y="322" text-anchor="middle" font-size="14" fill="#90a4ae">...</text>

  <text x="840" y="348" text-anchor="middle" font-size="11" font-weight="600" fill="#37474f">Optimal chunks</text>
  <text x="840" y="362" text-anchor="middle" font-size="10" fill="#78909c">per document</text>

  <!-- ─── Bottom legend ─── -->
  <rect x="20" y="430" width="860" height="74" rx="8" fill="#f5f5f5" stroke="#e0e0e0" stroke-width="1"/>
  <text x="40" y="452" font-size="11" font-weight="600" fill="#37474f">Modular design:</text>
  <rect x="155" y="440" width="12" height="12" rx="2" fill="url(#methodGrad)" stroke="#ffb74d" stroke-width="0.8"/>
  <text x="172" y="451" font-size="10" fill="#546e7a">Add chunking methods — any function returning a list of strings</text>
  <rect x="155" y="460" width="12" height="12" rx="2" fill="url(#metricGrad)" stroke="#ce93d8" stroke-width="0.8"/>
  <text x="172" y="471" font-size="10" fill="#546e7a">Add quality metrics — any function scoring a list of chunks</text>
  <rect x="155" y="480" width="12" height="12" rx="2" fill="url(#selectGrad)" stroke="#66bb6a" stroke-width="0.8"/>
  <text x="172" y="491" font-size="10" fill="#546e7a">Selection picks the method with the highest mean metric score for each document independently</text>
</svg>
